<svg width="265" height="265" viewBox="0 0 265 265" fill="none" xmlns="http://www.w3.org/2000/svg">
<path fill-rule="evenodd" clip-rule="evenodd" d="M12.3015 102.62C-4.1005 119.022 -4.10051 145.615 12.3015 162.017L102.618 252.334C119.02 268.736 145.613 268.736 162.015 252.334L192.695 221.655C178.159 234.197 156.183 233.572 142.389 219.778L44.766 122.155C31.3112 108.7 30.3851 87.4608 41.9875 72.9344L12.3015 102.62ZM72.9342 41.9877C87.4606 30.3852 108.7 31.3114 122.154 44.7662L219.778 142.389C233.572 156.183 234.197 178.159 221.655 192.695L252.334 162.016C268.736 145.614 268.736 119.021 252.334 102.619L162.017 12.3016C145.615 -4.10038 119.022 -4.10038 102.62 12.3016L72.9342 41.9877Z" fill="#B9007F"/>
<path fill-rule="evenodd" clip-rule="evenodd" d="M80.1323 37.4892C93.8688 30.9749 110.789 33.4006 122.155 44.7662L126.975 49.5864L163.139 13.4225L162.018 12.3015C145.616 -4.10051 119.023 -4.1005 102.621 12.3015L87.6605 27.2618C84.568 30.3542 82.0587 33.8089 80.1323 37.4892Z" fill="#77006C"/>
<path fill-rule="evenodd" clip-rule="evenodd" d="M131.757 209.145L95.5935 245.309L102.618 252.334C119.02 268.736 145.613 268.736 162.015 252.334L192.693 221.657C178.157 234.197 156.183 233.571 142.39 219.777L131.757 209.145Z" fill="#79006C"/>
<path d="M157.897 196.603C125.897 164.603 89.3955 128.604 62.8952 102.103C48.3954 87.6031 52.3972 61.6759 64.3972 49.6031C78.4018 35.5138 97.8964 16.6031 97.8964 16.6031C97.8964 16.6031 92.9522 27.894 91.8964 35.6031C91.0486 41.7938 90.6092 45.4888 91.8964 51.6031C93.1218 57.4238 99.8957 65.1031 99.8957 65.1031C99.8957 65.1031 149.896 115.603 195.396 161.103C209.514 175.221 212.396 200.603 196.896 216.603C182.127 231.848 161.896 252.103 161.896 252.103C161.896 252.103 171.897 238.103 170.897 224.103C169.897 210.103 163.397 202.103 157.897 196.603Z" fill="#E5007F"/>
</svg>
